<?xml version="1.0" encoding="UTF-8"?>
<svg id="Layer_2" data-name="Layer 2" xmlns="http://www.w3.org/2000/svg" viewBox="0 0 185.83 87.36">
  <g id="Layer_1-2" data-name="Layer 1">
    <g>
      <path d="M60.19,42.18c1.25-.17,2.06-1.84,2.88-2.73,2.27-2.48,5.84-5.41,9.1-6.35,1.84-.54,3.39-.89,5.18.02.37.19.87.67,1.29.68.47.01.76-.48,1.13-.68.81-.43,3.65-.68,4.26.1.36.47-.05.96-.27,1.41-2.26,4.63-5.78,8.79-7.84,13.58-.13.58.35.8.85.63.35-.12,1.51-1,1.86-1.27,3.08-2.39,5.54-5.92,7.68-9.16.46-.7,2.25-3.3,2.34-3.93.12-.9-.53-1.2-.49-1.87.04-.76,1.12-3.22,1.57-3.9.73-1.12,2.25-1.57,3.36-.71.9.71.47,2.16.2,3.11-.12.44-.54,1.03-.26,1.47s2.15.97,2.72,1.22c1.79.79,3.06,2.28,1.93,4.24-1.28,2.21-3.18,4.44-4.6,6.63-.6.93-1.62,2.56-1.66,3.67-.04,1.2,2-.22,2.36-.49,4.74-3.52,7.09-9.37,12-12.85,2.6-1.84,7.04-3.65,10.03-1.81.22.13.58.54.78.54.39-.16.72-.51,1.11-.72,1.06-.54,2.39-.57,3.53-.29.5.12.91.4.86.97-.06.63-2.11,3.44-2.58,4.19-1.56,2.48-3.27,5.15-4.69,7.69-.57,1.02-1.14,2.07-.87,3.28.11.08.21.08.33.04.43-.12,2.18-1.36,2.6-1.71,3.33-2.69,5.77-5.61,8.04-9.22,2.61-4.16,5.23-8.32,7.84-12.49,3.02-4.82,7.23-12.82,12.42-15.34.72-.35,1.36-.48,2.17-.39.73.09,1.02.87.69,1.5-.37.7-2.1,2.09-2.74,2.8-1.43,1.6-2.44,3.56-3.62,5.34-1.48,2.24-2.89,4.48-4.33,6.75-1.63,2.57-3.32,5.1-4.9,7.71-.05.09.03.22.1.24.2.04.99-.6,1.22-.74,2.12-1.24,4.22-1.95,6.72-1.74,2.01.17,2.92,1.86,2.57,3.74-.64,3.41-4.91,5.76-7.89,6.83-.51.18-2.01.5-2.26.88-.48.74.26,3.14.39,4.05.09.66-.21,1.12.65,1.39,1.05.34,2.51-.65,3.39-1.23,3.47-2.32,4.3-5.87,7.01-8.87,2.43-2.69,7.74-6.29,11.51-5.89,1.17.12,1.55.67,2.43,1.14.7.37.96-.19,1.52-.5.85-.48,1.95-.66,2.92-.58,1.37.11,2.05.62,1.36,2.02-.76,1.54-2.08,3.33-2.99,4.88-1.43,2.45-2.75,4.97-4.16,7.43-.18.46-.69,2.22.16,2.14.22-.02,1.13-.48,1.35-.62,1.68-1.08,4.55-3.76,5.83-5.32,1.1-1.33,1.86-2.84,2.79-4.28,1.83-2.86,3.71-5.69,5.47-8.6.11-.15-.06-.43-.22-.47-.47-.14-1.66.05-2.25-.01-1.15-.12-1.25-1.46-.58-2.19,1.48-1.62,4.1.49,5.64-1.72,1.26-1.81,2.04-3.99,3.59-5.67.34-.37.53-.65,1.05-.7.7-.07,2.38-.08,3.07,0,.9.11.79,1.09.57,1.74-.09.27-.33.64-.48.91-.8,1.44-1.79,2.8-2.63,4.22-.09.17-.13.46.13.49l4.67.14c.9.25.95,1.76.25,2.22-.49.33-2.51.45-3.16.48-1.24.05-3.49-.3-4.37.66-1.59,2.74-3.45,5.33-5.06,8.06-.51.86-.91,1.79-1.44,2.64-1.29,2.08-2.45,3.85-3.51,6.11-.24.51-.59,1.04-.24,1.58.54.83,1.8.11,2.47-.23,2.21-1.1,4.27-2.69,6.05-4.37.79-.75,1.45-1.95,2.67-1.93.84.01,1.27.8.97,1.55-.21.52-2.39,2.69-2.93,3.19-2.79,2.58-7.84,6.13-11.81,4.81-1.14-.38-1.55-1.37-1.57-2.52,0-.47.34-1.21-.25-1.42-.3-.03-1.19,1.02-1.5,1.27-1.39,1.16-3.68,2.7-5.51,2.87-2.49.24-3.84-.16-4.11-2.8-.02-.22.11-.92-.18-.91-.54.43-.99.95-1.53,1.39-2.12,1.7-4.14,2.57-6.92,2.33-1.09-.09-1.98-.5-2.56-1.45-.19-.31-.7-1.89-.8-1.91-.35-.07-1.21.85-1.52,1.1-1.99,1.53-5.36,3.25-7.81,1.77-2.04-1.24-1.63-6.02-2.08-8.12-.26-.67-.96-.57-1.4-.13-.69.68-1.96,2.69-2.54,3.58-.86,1.33-1.85,3.54-2.89,4.62-.68.71-2.31.63-3.24.55s-1.41-.42-1.09-1.38c.06-.19.58-.81.13-.79-.1,0-1.31,1.03-1.6,1.21-1.91,1.15-6.36,1.89-6.64-1.27-.03-.35.13-1.04-.08-1.23-.38-.36-.64.3-.87.52-1.76,1.62-4.02,2.8-6.45,2.95-1.65.1-3.54-.5-4.19-2.15-.22-.54-.16-.84-.23-1.37-.01-.1-.1-.45-.24-.42-.28.01-.68.57-.91.77-1.34,1.15-3.67,2.99-5.43,3.17-2.28.22-3.69-.08-3.83-2.58-.25-4.42,3.24-7.46,5.49-10.77.76-1.12,1.61-2.49-.18-3.13-.76-.27-1.13-.18-1.61.46-1.74,2.28-3.23,5.08-4.94,7.45-1.93,2.69-6.79,8.3-10.22,8.58-.66.05-2.49.04-3.05-.24s-.84-1.35-.86-1.91c0-.31.16-.68.12-.92-.06-.37-.49-.47-.77-.25s-.62.78-.95,1.09c-2.15,1.97-5.27,2.59-8.13,2.22-2.85-.37-3.14-3.85-2.51-6.08.12-.43.56-.9.15-1.25-.33-.28-1.69-.25-2.05,0s-1.08,1.34-1.45,1.75c-3.52,3.89-8.3,6.73-13.54,7.52-2.94.44-9.02.86-10.49-2.44-2.12-4.75,4.81-7.14,8.27-7.86,3.98-.83,8.24-1,12.3-1.04l.17-.12c1.42-3.86,2.89-9.64-.9-12.6-.2.08-.4.18-.62.23-1.2.28-4.67.25-5.92.02-1.52-.28-3.24-1.04-3.04-2.86.08-.69.91-1.44,1.53-1.67,1.71-.66,5.29-.14,7.16.13.39.06,1.36.34,1.68.25,2.38-1.56,4.03-4.03,5.08-6.65,1.28-3.18,1.61-5.58-.13-8.68-.24-.43-.96-1.54-1.36-1.78-.26-.15-.67.17-.91.34-3.95,2.78-8.33,8.52-11.11,12.49-4.77,6.81-9.1,13.88-14,20.61-5.15,7.06-10.92,13.9-17.37,19.79-2.47,2.26-6.33,5.54-9.28,7.04-.68.35-1.45.53-2.14.84-.1.05-.09.17-.23.21-.46.12-.66.05-.95-.3-.87-1.03.24-1.96,1-2.58,2.01-1.63,4.1-3.15,5.99-4.92,4.13-3.85,7.44-8.57,10.82-13.08,4.82-6.46,9.59-12.98,14.02-19.71,3.77-5.72,7.6-11.53,12.29-16.56,2.44-2.62,5.4-4.65,8.34-6.66,0-.29-4.11-1.47-4.6-1.59-8.81-2.09-18.93-.62-26.68,4.05-4.28,2.58-10.03,7.22-11.04,12.35l-.25,2.3c-.44.54-1.68.69-2.04.03-.36-1.49-.79-2.89-.56-4.45.62-4.15,5.78-9.04,9.08-11.4,4.8-3.42,11.31-6.04,17.13-6.99,3.61-.59,7.21-.81,10.84-.38,4.34.51,8.45,1.78,12.32,3.78,1.24-.56,2.43-1.28,3.66-1.86.73-.34,2.52-1.25,3.24-1.17s1.15.44,1.28,1.13c.14.75-.22.9-.76,1.24-1.15.73-2.47,1.25-3.6,2.01-.16.11-.44.26-.54.4-.52.69.73,1.61,1.13,2.08,1.64,1.94,2.52,4.68,2.62,7.21.19,4.92-3.59,9.48-7.29,12.3-.21.16-1.16.72-1.16.88,0,.11,1.14,1.25,1.31,1.46,2.85,3.49,2.79,7.05,1.88,11.27-.06.26-.37.95-.26,1.14.05.01.14.08.17.08.46,0,1.1.06,1.53,0ZM49.93,27.96c.06-.06.1-.21.08-.3-.05-.13-.17-.18-.29-.22-.31-.09-1.66-.18-2.06-.2s-2.05.05-2.3.33c-.39.44.31.53.62.55.97.08,2.75.05,3.72-.08.08-.01.19-.03.24-.08ZM136.99,37.92c.55-.58,1.33-1.74,1.43-2.54s-.45-1.09-1.17-.95c-1.07.2-3.09,1.59-4,2.27-.83.62-3.13,2.45-3.57,3.28-.07.13-.1.24-.08.39.94-.11,1.95.31,2.88.22,1.08-.1,3.75-1.85,4.52-2.66ZM107.2,46.96c.34-.34.67-.84,1.02-1.2,1.85-1.95,6.09-6.13,6.37-8.79.12-1.19.06-2.33-1.4-2.06-2.06.38-5,2.77-6.4,4.32-1.54,1.7-5.08,6.62-5.24,8.83-.05.74.64,1.56,1.41,1.49.39-.03,2.22-1.08,2.65-1.36.52-.33,1.15-.79,1.58-1.22ZM155.6,35.06c-.8.04-2.93,1.46-3.62,1.99-2.37,1.83-5.94,6.21-7.05,8.98-.28.7-.25.87-.24,1.58.02,1.34,0,2.36,1.69,1.62,2.55-1.11,4.78-3.66,6.58-5.73,1.4-1.6,4.12-4.72,4.19-6.89.03-.76-.8-1.59-1.55-1.54ZM68.94,39.09c-1.82,1.64-4.97,5.94-5.49,8.32-.13.58-.19,1.01.2,1.51.86,1.09,2.24.19,3.21-.29,3.02-1.5,4.85-3.39,6.84-6.06.78-1.05,3.12-4.43,3.22-5.59.07-.79-.04-1.7-1.01-1.77-2.03-.14-5.5,2.56-6.97,3.89ZM50.89,45.24l-2.52-.08c-3.42.21-6.88.61-10.09,1.86-.91.36-1.87.81-2.47,1.61-1.09,1.45.53,1.98,1.72,2.19,4.32.77,9.01-1.34,12.19-4.17.2-.17,1-.93,1.1-1.09.07-.12.09-.2.07-.33Z" style="fill: #0d5432;"/>
      <path d="M107.59,75.98l1.13-2.19c-.92.98-1.95,2.16-3.07,2.9s-2.92,1.14-2.72-.82l.69-2.15c-1.49,1.29-3.68,4.07-5.89,3.7-.58-.1-.73-.5-.78-1.04l.62-2.22c-.79.79-1.61,1.58-2.53,2.2-.73.49-1.5.96-2.42.86-1.15-.13-1.23-1.27-1.17-2.19-.84.83-1.71,1.76-2.74,2.36-2.31,1.35-3.18-.15-2.67-2.38.16-.68.52-1.3.71-1.92.07-.25-.49.1-.6.13-.24.07-.66.17-.9.19s-.79-.09-.9-.03c-.12.06-.68.88-.85,1.05-.54.56-1.49,1.3-2.22,1.57-.95.35-2.15.34-2.48-.8l-.21-.99c0,.08-.05.16-.11.22-1.34,1.56-3.75,4.62-5.98,4.59-.9-.01-1.57-.45-1.7-1.37-.4-2.88,3.29-7.97,4.52-10.6.03-.06.12-.16.02-.2l-5.05,1.47c-1.34,2.4-2.7,4.88-4.29,7.11-1.06,1.5-3.59,4.98-5.71,3.75-2.38-1.38.6-4.96,1.78-6.22,1.85-1.98,4.16-3.77,6.5-5.12l5.05-9.27c-.33-.03-.69.13-1,.24-3.25,1.14-7.86,4.17-10.55,6.36-.27.22-.6.81-.95.44-.1-.11-.14-.14-.07-.29.09-.2,1.41-1.24,1.68-1.46,2.69-2.12,9.72-6.75,13.11-6.41.1,0,.44.03.4.18l-5.39,9.62c-.04.15.08.12.18.1.3-.05.75-.17,1.06-.25,1.34-.31,2.69-.73,3.94-1.33l4.99-8.62c.11-.11,1.64-.2,1.71-.14-2.9,5.31-6.32,10.38-8.83,15.9-.47,1.03-1.24,2.71-1.36,3.81-.14,1.23.39,1.68,1.52,1.16,1.24-.58,4.03-3.76,4.8-4.97,1.15-1.8,1.67-3.86,3.92-4.82.39-.17.89-.16,1.12-.27.16-.07.83-.89,1.09-1.09.58-.46,1.98-1.13,2.17.02.28,1.65-1.6,4.55-2.39,5.99.3.04.51.09.82.05.28-.03,1.31-.4,1.49-.58.1-.1.51-1.11.64-1.37,1.3-2.49,2.71-4.96,4.32-7.26,1.18-1.69,3.78-5.21,5.92-5.52.91-.13,1.76.44,1.59,1.44-.35,2.01-5.26,6.7-6.9,8.18-.76.69-2.21,1.66-2.8,2.37-.76.9-2.45,4.59-2.76,5.77-.16.61-.46,1.63.49,1.51s3.58-2.8,4.2-3.6c.3-.39.43-.87.68-1.28,1.49-2.47,4.32-4.84,7.41-3.96.35.1.44.3.72.4.74-1.3,1.56-2.58,2.42-3.81,1.18-1.69,4.34-6.01,6.44-6.24.13-.01.77-.04.76.11-.23.44-.66.45-1.07.68-2.36,1.32-6.42,7.7-7.88,10.19-.89,1.51-2.78,4.84-2.98,6.49-.13,1.03.61.66,1.22.35,1.4-.72,3.94-3.26,4.95-4.52.69-.86,1.28-2.08,1.94-3.02.12-.17.61-.89.72-.96.23-.14.86-.05,1.17-.07.08,0,.57-.18.47.04-1.41,2.08-3.09,4.26-4.19,6.52-.16.32-.95,1.96-.61,2.18.8.06,1.64-.7,2.21-1.22,1.88-1.7,3.91-4.28,5.22-6.44.26-.43.51-.89.82-1.29h1.57l-2.11,3.42c.38-.34.65-.78.99-1.16.57-.63,2.25-2.35,3.05-2.48,2.39-.38.9,2.32.36,3.35-.77,1.45-1.97,2.93-2.58,4.42-.08.2-.43.94-.11,1.04.92-.1,1.64-.82,2.28-1.42,1.28-1.21,1.97-2.18,2.94-3.62s3.2-3.66,5.07-3.89c.71-.09,1.47-.11,1.76.66l.15.05.49-.79c.2.07,1.55-.2,1.55.02l-6.92,12.27c3.21-1.25,6.49-2.37,9.9-2.96,1.71-.3,5.35-.83,6.78.24,1.02.77.38,2.05-.29,2.83-.15.18-.84.89-1.05.84-.12-.02-.09-.1-.05-.19.12-.27.47-.63.61-.92,1.22-2.57-2.11-2.55-3.77-2.45-4.18.24-8.75,1.88-12.6,3.43-1.31,1.77-4.19,6.47-6.5,6.76-.96.12-1.77-.45-1.47-1.47.6-2.04,4.41-4.32,6.3-5.1l4.03-7.12c-1.03.81-2.01,1.86-3.2,2.44-.6.29-1.55.57-2-.12-.32-.48-.15-1.13-.15-1.67-1.05.99-2.36,2.68-3.95,2.67-.64,0-1.12-.25-1.12-.96,0-1.54,2.53-4.69,3.23-6.25.24-.53.74-1.99-.4-1.35-1.01.56-4.07,4.21-4.77,5.28-.47.71-.82,1.54-1.25,2.28h-1.38ZM96.71,63.14c.76-.84,1.94-2.2,2.35-3.23.26-.66.1-1.23-.72-1.01-.96.25-2.74,2.49-3.38,3.32-1.61,2.1-3.04,4.43-4.42,6.7l.73-.54c1.84-1.71,3.75-3.37,5.44-5.24ZM85.86,67.33c-.32.06-.92.65-1.15.9-.8.91-1.82,2.82-.95,3.93.19.24.38.43.61.18.55-.58,1.84-3.4,1.93-4.19.05-.4.1-.92-.45-.82ZM121.25,70.11c-.88.97-2.89,3.62-2.93,4.91-.01.44.31.64.73.59.78-.11,3.12-2.07,3.74-2.68,1.04-1.03,1.5-2.59,2.33-3.79.1-.58-.32-1.3-.98-1.2-.89.12-2.28,1.52-2.88,2.19ZM83.4,68.63c-.14-.15-1.02.9-1.12,1.03-.85,1.09-2.7,4.26-2.41,5.61.2.93,1.18.45,1.71.1.82-.54,1.54-1.38,2.19-2.12.03-.15-.42-.4-.54-.54-1.01-1.11-.23-2.87.18-4.08ZM98.02,73.19c.23-.26.42-.66.6-.97s1.38-2.51,1.36-2.65c-.04-.44-.74-.51-1.1-.51-2.2,0-4.6,3.09-5.44,4.91-.41.88-1.21,3.06.62,2.3.8-.33,3.35-2.39,3.95-3.08ZM67.87,69.21c-.15-.13-2.34,1.54-2.58,1.75-1.33,1.11-4.91,4.73-5.13,6.38-.14,1.02.45,1.14,1.23.72.99-.52,2.05-1.91,2.73-2.81,1.43-1.89,2.63-3.96,3.76-6.04ZM117.79,81.89c-1.31.47-4.6,3.04-4.87,4.35-.17.85.88.39,1.25.15,1.05-.68,2.65-2.9,3.36-4,.05-.08.3-.46.26-.5Z" style="fill: #0d5432;"/>
      <path d="M141.75,70.03l27.9-.02c.51-.02.82.38.65.87-.15.43-.64.37-1.01.44h-26.97c-.98.08-1.62-.85-.56-1.3Z" style="fill: #0d5432;"/>
      <path d="M20.26,68.93l28.3.02c.54.23.51.93,0,1.17l-28.03.04c-.79.05-.97-.96-.27-1.23Z" style="fill: #0d5432;"/>
      <path d="M110.26,65.32c-.84,1.13-2.79.75-1.83-.85.87-1.45,3.04-.76,1.83.85Z" style="fill: #0d5432;"/>
    </g>
  </g>
</svg>